<svg  class='svg' viewBox="0 0 382 227" fill="none" xmlns="http://www.w3.org/2000/svg">
<path id='road' d="M27.2151 39.1951L0.14916 45.0984L17.8508 67.9016L30.2811 43.1447L27.2151 39.1951ZM181 12.5L179.8 14.6929L181 12.5ZM348.5 168.5L346.511 170.014L348.5 168.5ZM354.016 224.283C354.172 225.655 355.411 226.64 356.783 226.484L379.138 223.937C380.51 223.781 381.496 222.542 381.339 221.17C381.183 219.798 379.944 218.813 378.572 218.969L358.701 221.233L356.437 201.362C356.281 199.99 355.042 199.004 353.67 199.161C352.298 199.317 351.313 200.556 351.469 201.928L354.016 224.283ZM17.4395 53.2546C18.9423 52.1614 20.5072 51.0484 22.1302 49.9208L19.2772 45.8147C17.6251 46.9625 16.0308 48.0964 14.4983 49.2111L17.4395 53.2546ZM26.9014 46.6772C28.4715 45.6324 30.086 44.5799 31.7419 43.5234L29.0525 39.3083C27.3696 40.382 25.7283 41.452 24.1316 42.5145L26.9014 46.6772ZM36.6438 40.4601C38.2641 39.4684 39.9178 38.4766 41.6024 37.4879L39.0717 33.1757C37.3601 34.1802 35.6799 35.1878 34.0337 36.1954L36.6438 40.4601ZM46.6151 34.6082C48.2782 33.6731 49.9672 32.7437 51.6799 31.8228L49.3119 27.4191C47.5711 28.3551 45.8547 29.2996 44.1647 30.2498L46.6151 34.6082ZM56.7958 29.1345C58.4984 28.2607 60.2212 27.3974 61.962 26.5471L59.7675 22.0544C57.9964 22.9196 56.2442 23.7976 54.5129 24.6862L56.7958 29.1345ZM67.1776 24.0651C68.9176 23.259 70.673 22.4678 72.442 21.6938L70.4378 17.1131C68.6353 17.9017 66.8473 18.7076 65.0758 19.5283L67.1776 24.0651ZM77.7543 19.4397C79.5302 18.7098 81.3173 17.9992 83.1139 17.31L81.3233 12.6417C79.4887 13.3454 77.6649 14.0706 75.8536 14.8151L77.7543 19.4397ZM88.5198 15.3131C90.33 14.6704 92.1477 14.0514 93.9711 13.4583L92.4245 8.70349C90.5574 9.31079 88.6976 9.94419 86.8468 10.6013L88.5198 15.3131ZM99.468 11.7556C101.312 11.2136 103.159 10.7002 105.008 10.2175L103.746 5.37956C101.845 5.87558 99.9486 6.40275 98.0577 6.95866L99.468 11.7556ZM110.589 8.85747C112.462 8.43398 114.336 8.04436 116.207 7.69089L115.279 2.77778C113.347 3.14266 111.416 3.54443 109.487 3.98054L110.589 8.85747ZM121.856 6.73472C123.752 6.45181 125.645 6.20869 127.531 6.00774L127.001 1.03588C125.043 1.24452 123.081 1.49661 121.118 1.78945L121.856 6.73472ZM133.222 5.53044C135.13 5.41479 137.03 5.34548 138.919 5.32498L138.865 0.325275C136.89 0.346711 134.907 0.419128 132.919 0.539599L133.222 5.53044ZM144.608 5.41476C146.509 5.49694 148.398 5.63244 150.27 5.82381L150.779 0.849723C148.805 0.648054 146.819 0.50567 144.823 0.419418L144.608 5.41476ZM155.885 6.57584C157.751 6.88707 159.599 7.2585 161.426 7.69279L162.582 2.82829C160.641 2.36695 158.682 1.97327 156.708 1.64396L155.885 6.57584ZM166.864 9.19314C168.655 9.75836 170.423 10.3897 172.167 11.0899L174.03 6.45009C172.166 5.70153 170.278 5.0276 168.369 4.42505L166.864 9.19314ZM177.299 13.3889C178.139 13.8057 178.973 14.2403 179.8 14.6929L182.2 10.3071C181.315 9.82213 180.422 9.35663 179.522 8.91022L177.299 13.3889ZM179.8 14.6929C180.719 15.1963 181.62 15.6987 182.503 16.2L184.972 11.8519C184.066 11.3376 183.142 10.8226 182.2 10.3071L179.8 14.6929ZM187.713 19.2728C189.492 20.3638 191.185 21.4489 192.798 22.5279L195.579 18.3727C193.909 17.2553 192.16 16.1346 190.328 15.0108L187.713 19.2728ZM197.727 25.9922C199.408 27.2354 200.983 28.4691 202.456 29.6927L205.65 25.8464C204.101 24.5597 202.453 23.2681 200.7 21.972L197.727 25.9922ZM206.915 33.6534C208.414 35.0827 209.777 36.4958 211.013 37.8914L214.756 34.576C213.421 33.0693 211.96 31.5554 210.366 30.0351L206.915 33.6534ZM214.699 42.5048C215.887 44.1727 216.901 45.8122 217.757 47.4216L222.171 45.073C221.208 43.2623 220.079 41.4386 218.771 39.6032L214.699 42.5048ZM220.058 52.6829C220.704 54.5623 221.15 56.4024 221.424 58.2019L226.367 57.4494C226.047 55.3519 225.53 53.2199 224.787 51.0578L220.058 52.6829ZM221.749 63.8585C221.681 65.7852 221.434 67.6728 221.042 69.5197L225.933 70.5572C226.38 68.4499 226.667 66.2741 226.746 64.0358L221.749 63.8585ZM219.419 75.0594C218.738 76.8942 217.937 78.6797 217.055 80.4124L221.512 82.6801C222.467 80.802 223.349 78.84 224.107 76.7998L219.419 75.0594ZM214.13 85.5729C213.047 87.3173 211.923 88.9872 210.809 90.5814L214.907 93.4461C216.055 91.8036 217.233 90.0547 218.378 88.2099L214.13 85.5729ZM207.248 95.5469C206.62 96.4161 206.014 97.2603 205.449 98.0705L209.551 100.929C210.09 100.156 210.676 99.34 211.3 98.476L207.248 95.5469ZM205.449 98.0705C204.787 99.02 204.199 99.9598 203.681 100.89L208.049 103.323C208.481 102.548 208.979 101.749 209.551 100.929L205.449 98.0705ZM201.164 107.204C200.575 109.675 200.487 112.023 200.797 114.22L205.748 113.524C205.527 111.955 205.581 110.236 206.028 108.363L201.164 107.204ZM203.111 120.875C204.306 122.952 205.826 124.737 207.445 126.218L210.82 122.529C209.52 121.34 208.346 119.948 207.445 118.382L203.111 120.875ZM213.03 130.09C214.162 130.663 215.277 131.108 216.313 131.404L217.687 126.596C217 126.4 216.18 126.08 215.286 125.628L213.03 130.09ZM216.313 131.404C217.044 131.613 218.183 131.889 219.605 132.212L220.713 127.337C219.297 127.015 218.275 126.764 217.687 126.596L216.313 131.404ZM225.994 133.591C227.947 133.997 230.103 134.437 232.397 134.896L233.379 129.994C231.095 129.536 228.951 129.099 227.013 128.696L225.994 133.591ZM238.804 136.16C240.896 136.567 243.044 136.98 245.21 137.391L246.142 132.478C243.983 132.069 241.843 131.658 239.759 131.252L238.804 136.16ZM251.624 138.591C253.797 138.992 255.95 139.383 258.044 139.757L258.922 134.834C256.839 134.463 254.696 134.073 252.532 133.674L251.624 138.591ZM264.484 140.881C266.805 141.276 268.981 141.633 270.942 141.939L271.712 136.998C269.78 136.697 267.627 136.344 265.323 135.952L264.484 140.881ZM277.483 142.853C278.393 142.956 279.189 143.027 279.822 143.055C280.135 143.068 280.45 143.073 280.74 143.058C280.948 143.047 281.438 143.018 281.928 142.821L280.072 138.179C280.277 138.097 280.43 138.073 280.458 138.069C280.503 138.062 280.516 138.063 280.482 138.064C280.412 138.068 280.27 138.069 280.036 138.059C279.573 138.039 278.909 137.982 278.044 137.885L277.483 142.853ZM281.928 142.821C281.845 142.854 281.839 142.848 281.976 142.816C282.091 142.788 282.26 142.754 282.488 142.714C282.942 142.636 283.572 142.55 284.365 142.473L283.88 137.496C282.992 137.583 282.237 137.684 281.638 137.787C281.111 137.878 280.517 138.001 280.072 138.179L281.928 142.821ZM290.48 142.245C292.326 142.269 294.398 142.37 296.645 142.59L297.132 137.614C294.738 137.38 292.525 137.271 290.545 137.246L290.48 142.245ZM302.763 143.44C304.703 143.789 306.721 144.231 308.792 144.782L310.078 139.95C307.868 139.362 305.717 138.892 303.65 138.519L302.763 143.44ZM314.684 146.617C316.568 147.292 318.476 148.065 320.394 148.947L322.484 144.405C320.429 143.459 318.386 142.632 316.372 141.91L314.684 146.617ZM325.869 151.769C327.608 152.767 329.343 153.864 331.062 155.07L333.934 150.977C332.087 149.681 330.224 148.503 328.357 147.432L325.869 151.769ZM335.932 158.828C337.46 160.123 338.968 161.515 340.446 163.013L344.005 159.501C342.421 157.896 340.804 156.402 339.163 155.013L335.932 158.828ZM344.585 167.59C345.235 168.374 345.877 169.182 346.511 170.014L350.489 166.986C349.813 166.098 349.128 165.236 348.433 164.398L344.585 167.59ZM346.511 170.014C347.111 170.803 347.687 171.587 348.24 172.364L352.316 169.469C351.732 168.646 351.123 167.818 350.489 166.986L346.511 170.014ZM351.434 177.22C352.479 178.946 353.408 180.638 354.231 182.295L358.709 180.07C357.822 178.286 356.826 176.472 355.711 174.63L351.434 177.22ZM356.551 187.566C357.268 189.436 357.851 191.252 358.316 193.01L363.149 191.732C362.638 189.798 362 187.811 361.22 185.776L356.551 187.566ZM359.441 198.587C359.714 200.561 359.84 202.445 359.845 204.231L364.845 204.216C364.839 202.206 364.698 200.098 364.394 197.901L359.441 198.587ZM359.451 209.831C359.159 211.818 358.72 213.633 358.193 215.258L362.949 216.801C363.562 214.911 364.065 212.824 364.398 210.559L359.451 209.831ZM356.004 220.269C355.513 221.123 355.017 221.849 354.543 222.444L358.457 225.556C359.1 224.747 359.734 223.812 360.338 222.762L356.004 220.269Z" fill="#333"/>
<circle cx="50" cy="50" r="10" fill="blue" />
</svg>
